<?xml version="1.0" encoding="utf-8"?>
<!-- Generator: Adobe Illustrator 16.0.3, SVG Export Plug-In . SVG Version: 6.00 Build 0)  -->
<!DOCTYPE svg PUBLIC "-//W3C//DTD SVG 1.1//EN" "http://www.w3.org/Graphics/SVG/1.1/DTD/svg11.dtd">
<svg version="1.1" id="Layer_1" xmlns="http://www.w3.org/2000/svg" xmlns:xlink="http://www.w3.org/1999/xlink" x="0px" y="0px"
	 width="144px" height="144px" viewBox="0 0 144 144" enable-background="new 0 0 144 144" xml:space="preserve">
<g>
	<g>
		<path fill="none" stroke="#6A5D67" stroke-width="8" stroke-linecap="round" stroke-linejoin="round" stroke-miterlimit="10" d="
			M103.589,40.798h-8.841c-1.626,0-2.948,1.319-2.948,2.947v8.842c0,1.628,1.322,2.946,2.948,2.946h8.841
			c1.626,0,2.945-1.317,2.945-2.946v-8.842C106.534,42.117,105.215,40.798,103.589,40.798z"/>
	</g>
	
		<line fill-rule="evenodd" clip-rule="evenodd" fill="none" stroke="#6A5D67" stroke-width="8" stroke-linejoin="round" stroke-miterlimit="10" x1="92" y1="63" x2="117" y2="63"/>
	
		<line fill-rule="evenodd" clip-rule="evenodd" fill="none" stroke="#6A5D67" stroke-width="8" stroke-linejoin="round" stroke-miterlimit="10" x1="30" y1="63" x2="54" y2="63"/>
	<path fill="none" stroke="#6A5D67" stroke-width="8" stroke-linecap="round" stroke-linejoin="round" stroke-miterlimit="10" d="
		M115,95.715c0,9.412-7.073,18.285-16.485,18.285H47.183C37.772,114,29,105.127,29,95.715V46.521C29,37.111,37.772,31,47.183,31
		h51.332C107.927,31,115,37.111,115,46.521V95.715z"/>
	<g>
		
			<path fill-rule="evenodd" clip-rule="evenodd" fill="none" stroke="#6A5D67" stroke-width="8" stroke-linecap="round" stroke-linejoin="round" stroke-miterlimit="10" d="
			M96.376,75.743c0-12.993-10.535-23.527-23.527-23.527c-12.994,0-23.526,7.867-23.526,23.527c0,12.991,10.534,23.527,23.526,23.527
			C85.841,99.271,96.376,88.734,96.376,75.743z"/>
	</g>
</g>
<g>
	<g>
		<path fill="#6A5D67" d="M45.405,38.508c-3.506,1.99-6.938,4.776-8.564,8.563c-0.569,1.326-0.263,3.384,1.494,3.672
			c2.474,0.406,5.164-0.014,7.585-0.557c1.346-0.302,2.58-0.806,3.43-1.928c1.119-1.477,0.136-3.154-1.089-4.084
			c-1.088-0.826-2.794-0.173-3.42,0.897c-0.751,1.283-0.186,2.598,0.897,3.42c-0.313-0.559-0.626-1.118-0.939-1.676
			c0.114-0.42,0.228-0.841,0.341-1.262c-0.214,0.505,1.04-0.81,0.426-0.458c0.539-0.309-0.283,0.085-0.444,0.133
			c-0.767,0.226-1.565,0.354-2.354,0.473c-0.514,0.078-1.229,0.128-1.824,0.166c-0.346,0.021-0.693,0.029-1.04,0.03
			c-0.193,0.001-1.086-0.114-0.24,0.025c0.498,1.224,0.996,2.448,1.494,3.672c1.321-3.077,3.921-5.153,6.77-6.77
			C50.732,41.235,48.213,36.915,45.405,38.508L45.405,38.508z"/>
	</g>
</g>
<g>
	<g>
		<path fill="#6A5D67" d="M35.002,37.256c-8.359,1.324-5.714,14.23-5.87,20.023c-0.091,3.407,1.027,6.667,4.712,7.312
			c4.116,0.722,9.886,0.27,13.867-0.987c3.854-1.217,6.481-5.209,8.862-8.217c2.276-2.875,5.116-7.566,2.209-11.015
			c-5.877-6.973-14.873,4.164-14.949,10.293c-0.027,2.159,2.758,3.341,4.268,1.768c4.259-4.438,6.025-13.707-0.172-17.26
			c-2.802-1.606-5.319,2.714-2.523,4.317c3.166,1.815,1.099,7.387-0.839,9.407c1.422,0.589,2.845,1.178,4.268,1.768
			c0.024-1.982,1.557-3.953,2.768-5.399c0.704-0.841,1.587-1.659,2.618-2.075c1.834-0.739-0.699,3.962-0.917,4.285
			c-2.9,4.31-5.855,7.619-11.199,7.948c-2.273,0.141-4.562,0.31-6.841,0.307c-1.948-0.003-1.066-3.643-1.063-4.999
			c0.006-2.821-1.761-12.04,2.132-12.657C39.509,41.574,38.156,36.757,35.002,37.256L35.002,37.256z"/>
	</g>
</g>
<g>
	<g>
		<path fill="#6A5D67" d="M60,39c-4.438,0.471-8.736,1.399-13.063,2.477c-5.006,1.246-2.883,8.939,2.127,7.714
			c2.775-0.679,5.559-1.321,8.333-2c4.028-0.985,3.601-6.524,0-7.714C50.566,37.219,43.44,37.316,36.333,37
			c-5.253-0.234-4.997,7.433,0,8c2.445,0.277,4.875,0.329,7.333,0.333c3.148,0.006,4.83-3.371,3.454-6.019
			c-3.169-6.1-9.754-7.383-12.789-0.407c-2.36,5.427-3.016,11.591-3.665,17.426c2.619-0.354,5.238-0.709,7.857-1.063
			C38.019,52.526,38.006,49.781,38,47c-2.276,0.943-4.552,1.886-6.829,2.829c5.687,5.914,10.753,7.152,17.848,2.625
			c-1.824-1.825-3.648-3.649-5.473-5.473c-2.756,3.917-7.757,5.503-11.375,8.524c-2.064,1.724-1.2,4.998,0.81,6.283
			c5.136,3.283,10.545,0.471,14.983-2.67c6.292-4.455,12.487-7.391,19.766-9.927c3.679-1.282,3.94-6.541,0-7.714
			c-2.799-0.834-5.778-1.213-8.378-2.597c-0.319,2.437-0.637,4.874-0.956,7.311c2.555-0.677,4.983-1.036,7.289-2.403
			c2.613-1.549,2.566-5.348,0-6.908c-6.878-4.18-18.31-6.741-26.083-4.069c-4.849,1.666-2.766,9.396,2.127,7.714
			c5.839-2.006,14.748,0.121,19.917,3.264c0-2.303,0-4.605,0-6.908c-1.641,0.973-3.564,1.116-5.378,1.597
			c-3.265,0.866-4.041,5.668-0.956,7.311c3.266,1.738,6.777,2.357,10.289,3.403c0-2.571,0-5.143,0-7.714
			c-5.504,1.917-10.942,3.843-16.002,6.776c-2.612,1.515-9.512,8.59-12.583,6.626c0.27,2.094,0.54,4.188,0.81,6.283
			c4.406-3.68,9.18-5.247,12.625-10.143c2.333-3.316-2.198-7.562-5.473-5.473c-4.025,2.569-4.909,1.999-8.152-1.375
			C34.394,41.639,29.993,43.559,30,47c0.007,3.512,0.172,6.938,0.81,10.397c0.884,4.799,7.398,3.06,7.857-1.063
			c0.332-2.987,0.79-5.951,1.404-8.894c0.355-1.704,0.744-3.517,1.441-5.12c0.08-0.183,0.469-0.927,0.586-1.058
			c-2.811-0.665-3.746-0.518-2.805,0.439c0.341,0.531,0.647,1.082,0.919,1.651c1.151-2.006,2.303-4.013,3.454-6.019
			c-2.458-0.004-4.889-0.056-7.333-0.333c0,2.667,0,5.333,0,8c6.414,0.286,12.77,0.153,18.937,2.19c0-2.571,0-5.143,0-7.714
			c-2.775,0.679-5.559,1.321-8.333,2c0.709,2.571,1.418,5.143,2.127,7.714c3.617-0.9,7.222-1.796,10.937-2.19
			C65.075,46.462,65.128,38.456,60,39L60,39z"/>
	</g>
</g>
<g>
	<g>
		<path fill="#6A5D67" d="M57.667,55c3.378,0.272,6.332-0.673,9.5-1.736c3.058-1.026,6.043-0.344,9.176-0.042
			c5.325,0.513,10.612-1.208,11.748-7.071c1.095-5.648-3.039-10.592-7.927-12.662c-6.505-2.755-13.948-1.87-20.832-2.155
			c-3.111-0.129-4.877,3.471-3.454,6.019c4.144,7.417,20.452,14.974,27.283,7.476c3.466-3.804-2.175-9.478-5.656-5.657
			c-2.859,3.138-13.096-2.953-14.718-5.857c-1.151,2.006-2.303,4.013-3.454,6.019c4.062,0.168,8.123,0.03,12.182,0.306
			c1.342,0.091,11.318,1.969,8.598,5.461c-1.039,1.333-7.861-0.323-9.434-0.443c-4.554-0.349-8.471,2.709-13.013,2.343
			C52.521,46.585,52.562,54.588,57.667,55L57.667,55z"/>
	</g>
</g>
<g>
	<g>
		<path fill="#6A5D67" d="M91,32.667c-3.893-0.02-7.752-0.28-11.603-0.857c-2.154-0.323-4.291,0.505-4.921,2.793
			c-0.524,1.909,0.634,4.597,2.794,4.92c4.565,0.685,9.11,1.119,13.729,1.143C96.16,40.694,96.157,32.694,91,32.667L91,32.667z"/>
	</g>
</g>
<g>
	<g>
		<path fill="#6A5D67" d="M88,44.667c3.869,0,3.869-6,0-6S84.131,44.667,88,44.667L88,44.667z"/>
	</g>
</g>
<g>
	<g>
		<path fill="#6A5D67" d="M84,44.333c-0.001,2.894-0.004,5.788-0.333,8.667c0.734-0.964,1.469-1.929,2.202-2.893
			c-0.622,0.229-1.207,0.224-1.869,0.227c-3.868,0.016-3.87,6.016,0,6c1.154-0.005,2.372-0.04,3.465-0.44
			c1.383-0.508,2.037-1.453,2.202-2.893c0.329-2.879,0.332-5.772,0.333-8.667C90.001,40.464,84.001,40.464,84,44.333L84,44.333z"/>
	</g>
</g>
<g>
	<g>
		<path fill="#6A5D67" d="M89.667,57c3.869,0,3.869-6,0-6S85.798,57,89.667,57L89.667,57z"/>
	</g>
</g>
<g>
	<g>
		<path fill="#6A5D67" d="M90.202,59.893c6.68,1.029,13.368,1.726,20.132,1.774c3.87,0.027,3.868-5.973,0-6
			c-6.225-0.044-12.387-0.613-18.536-1.56C88.014,53.524,86.388,59.305,90.202,59.893L90.202,59.893z"/>
	</g>
</g>
<g>
	<g>
		<path fill="#6A5D67" d="M94.334,63.333c3.869,0,3.869-6,0-6S90.465,63.333,94.334,63.333L94.334,63.333z"/>
	</g>
</g>
<g>
	<g>
		<path fill="#6A5D67" d="M94.334,63.333c1.777,0,3.556,0,5.333,0c1.636,0,3-1.365,3-3s-1.364-3-3-3c-1.777,0-3.556,0-5.333,0
			c-1.636,0-3,1.365-3,3S92.698,63.333,94.334,63.333L94.334,63.333z"/>
	</g>
</g>
<g>
	<g>
		<path fill="#6A5D67" d="M112,63.667c3.869,0,3.869-6,0-6S108.131,63.667,112,63.667L112,63.667z"/>
	</g>
</g>
<g>
	<g>
		<path fill="#6A5D67" d="M104.334,42c-0.275,5.264,0.731,10.5,2.44,15.464c1.252,3.636,7.049,2.074,5.785-1.595
			c-1.551-4.506-2.476-9.089-2.226-13.87C110.536,38.131,104.535,38.151,104.334,42L104.334,42z"/>
	</g>
</g>
<g>
	<g>
		<path fill="#6A5D67" d="M107.667,42.667c0.308,3.662,0.332,7.328,0.333,11c0.001,3.869,6.001,3.869,6,0
			c-0.001-3.672-0.025-7.338-0.333-11C113.346,38.84,107.343,38.809,107.667,42.667L107.667,42.667z"/>
	</g>
</g>
<g>
	<g>
		<path fill="#6A5D67" d="M95,36.667c5.041,0.59,9.244,3.366,13.869,5.226c3.593,1.444,5.138-4.361,1.596-5.786
			c-5.293-2.128-9.676-4.762-15.465-5.44C91.161,30.218,91.205,36.223,95,36.667L95,36.667z"/>
	</g>
</g>
<g>
	<g>
		<path fill="#6A5D67" d="M92.334,40.667c3.023,0.001,5.939,0.07,8.868,0.893c3.732,1.049,5.314-4.741,1.596-5.786
			c-3.429-0.963-6.924-1.105-10.464-1.107C88.465,34.665,88.465,40.665,92.334,40.667L92.334,40.667z"/>
	</g>
</g>
<g>
	<g>
		<path fill="#6A5D67" d="M113.334,59.667c3.869,0,3.869-6,0-6S109.465,59.667,113.334,59.667L113.334,59.667z"/>
	</g>
</g>
<g>
	<g>
		<path fill="#6A5D67" d="M105.334,58.667c3.869,0,3.869-6,0-6S101.465,58.667,105.334,58.667L105.334,58.667z"/>
	</g>
</g>
<path fill="#FFFFFF" d="M108,50.272c0,2.145-1.783,4.728-3.929,4.728h-11.7C90.228,55,88,52.417,88,50.272V39.06
	c0-2.145,2.228-3.06,4.371-3.06h11.7c2.146,0,3.929,0.915,3.929,3.06V50.272z"/>
</svg>
