<?xml version="1.0" encoding="utf-8"?>
<!-- Generator: Adobe Illustrator 16.0.3, SVG Export Plug-In . SVG Version: 6.00 Build 0)  -->
<!DOCTYPE svg PUBLIC "-//W3C//DTD SVG 1.1//EN" "http://www.w3.org/Graphics/SVG/1.1/DTD/svg11.dtd">
<svg version="1.1" id="Layer_2" xmlns="http://www.w3.org/2000/svg" xmlns:xlink="http://www.w3.org/1999/xlink" x="0px" y="0px"
	 width="144px" height="144px" viewBox="0 0 144 144" enable-background="new 0 0 144 144" xml:space="preserve">
<path fill="#6B5D68" stroke="#F8F7F8" stroke-miterlimit="10" d="M123,49.5c0,3.59-2.91,6.5-6.5,6.5h-87c-3.59,0-6.5-2.91-6.5-6.5
	l0,0c0-3.59,2.91-6.5,6.5-6.5h87C120.09,43,123,45.91,123,49.5L123,49.5z"/>
<path fill="#6B5D68" stroke="#F8F7F8" stroke-miterlimit="10" d="M123,74c0,3.59-2.91,6.5-6.5,6.5h-87c-3.59,0-6.5-2.91-6.5-6.5l0,0
	c0-3.59,2.91-6.5,6.5-6.5h87C120.09,67.5,123,70.41,123,74L123,74z"/>
<path fill="#6B5D68" stroke="#F8F7F8" stroke-miterlimit="10" d="M123,98.5c0,3.59-2.91,6.5-6.5,6.5h-87c-3.59,0-6.5-2.91-6.5-6.5
	l0,0c0-3.59,2.91-6.5,6.5-6.5h87C120.09,92,123,94.91,123,98.5L123,98.5z"/>
</svg>
